<?xml version="1.0" encoding="utf-8"?>
<!-- Generator: Adobe Illustrator 19.1.0, SVG Export Plug-In . SVG Version: 6.00 Build 0)  -->
<svg version="1.1" id="Layer_1" xmlns="http://www.w3.org/2000/svg" xmlns:xlink="http://www.w3.org/1999/xlink" x="0px" y="0px"
	 viewBox="0 0 500 500" style="enable-background:new 0 0 500 500;" xml:space="preserve">
<style type="text/css">
	.st0{fill:#002B2F;}
</style>
<g>
	<path class="st0" d="M71.4,367.5c0-33.2,0-66.3,0-99.5c9.5-7.1,13.4-6.7,21.5,2.3c7.1,7.9,15.8,12.8,26.6,13.1
		c24.7,0.7,43.7-22.7,38.6-48.5c-3-15.5-12.2-26.5-27.8-30.9c-14.7-4.2-27.2,0.6-37.3,11.6c-8.2,8.9-11.6,9.4-21.6,2.7
		c0-28.9,0-46.9,0-75.8c0.4-0.5,0.9-11.9,1-12.5c6.7-23.2,19.9-33.2,43.9-33.2c22.7,0,45.4,0,68.1,0c9,0,14-9,9.3-16.8
		c-1.5-2.5-3.8-4.5-5.8-6.7c-16.5-17.7-15.3-45.5,3.2-60.5c4.8-3.9,14.1-8.7,20-8.7c4.7,0,0.4,0,5.1,0c2.7,0,7.7,0.7,8.7,1.1
		c20.9,7.1,31.8,28.1,26.4,49.5c-2.1,8.5-6.7,15.5-13,21.4c-4.5,4.2-6,9-3.8,14.9c2.2,5.9,6.9,5.9,12,5.9c23.4-0.1,46.8-0.1,70.1,0
		c25.2,0.1,42.8,17.8,42.8,43c0,21.5,0,42.9,0,64.4c0,5.8,3.8,9.9,9.5,10.6c5.7,0.7,9-2.8,12.3-6.6c11.9-13.6,29.5-17.2,45-9.3
		c15.8,8.1,24.3,26.8,20.3,44.8c-4,18.2-18.2,31.1-35,31.8c-13.4,0.5-23.7-5.2-32.1-15.3c-3.3-4-7.5-6.2-13-4.1
		c-5.6,2.1-7.2,6.1-7.2,11.9c0.2,30.4,0.1,60.8,0.1,91.2c0,25-17.8,42.8-43,42.8c-24,0-48,0.1-72-0.1c-5.7-0.1-8.5,2.6-10.2,7.5
		c-2,5.9,0.5,10.3,4.6,14.1c10,9.5,14.5,21.1,13.6,35c-1.5,23.4-23.7,40.8-45.6,35.6c-30-7-40.7-44.7-19.2-68
		c1.7-1.9,3.7-3.6,5.2-5.6c3.2-4.1,3.2-8.5,1.2-13.2c-2.1-4.6-5.6-5.5-10.3-5.5c-23.8,0.2-47.6,0-71.4,0.1c-12,0-22.4-4.2-29.7-13.5
		C77.9,382.3,73.3,376,71.4,367.5z"/>
</g>
</svg>
