
<svg version="1.1" xmlns="http://www.w3.org/2000/svg" width="32" height="32" viewBox="0 0 32 32">
<path d="M24.923 10.317c-0.22-0.039-0.424-0.074-0.628-0.11-0.616-0.107-1.233-0.215-1.849-0.322-0.582-0.101-1.165-0.201-1.747-0.303-0.514-0.091-1.031-0.165-1.539-0.281-0.556-0.127-0.986-0.458-1.263-0.956-0.507-0.911-0.997-1.832-1.494-2.748-0.488-0.902-0.976-1.803-1.464-2.705-0.016-0.030-0.035-0.059-0.060-0.103-0.026 0.051-0.047 0.090-0.066 0.13-0.792 1.733-1.583 3.466-2.377 5.199-0.323 0.706-0.873 1.115-1.638 1.242-0.811 0.135-1.62 0.274-2.431 0.41-0.739 0.124-1.479 0.246-2.219 0.37-0.489 0.082-0.977 0.165-1.484 0.25 0.032 0.037 0.053 0.065 0.078 0.090 1.445 1.459 2.888 2.92 4.336 4.376 0.373 0.376 0.598 0.817 0.648 1.344 0.022 0.235-0.012 0.466-0.054 0.697-0.121 0.672-0.24 1.345-0.359 2.018-0.113 0.636-0.227 1.271-0.34 1.907-0.071 0.4-0.142 0.8-0.213 1.201-0.005 0.027-0.004 0.056-0.007 0.096 0.036-0.016 0.062-0.027 0.086-0.040 1.612-0.843 3.226-1.684 4.836-2.531 0.384-0.202 0.785-0.303 1.216-0.27 0.302 0.023 0.588 0.117 0.865 0.235 0.401 0.17 0.799 0.349 1.196 0.527 0.537 0.241 1.073 0.484 1.608 0.73 0.431 0.199 0.658 0.605 0.609 1.078-0.044 0.426-0.377 0.784-0.829 0.878-0.227 0.047-0.446 0.009-0.658-0.086-0.804-0.359-1.609-0.715-2.414-1.071-0.153-0.068-0.309-0.13-0.461-0.199-0.060-0.027-0.109-0.026-0.169 0.006-1.425 0.747-2.85 1.493-4.276 2.238-0.594 0.31-1.181 0.635-1.785 0.924-0.88 0.421-1.946-0.173-2.082-1.137-0.037-0.26 0.014-0.512 0.059-0.764 0.114-0.639 0.226-1.277 0.34-1.916 0.118-0.664 0.236-1.329 0.354-1.993 0.119-0.667 0.237-1.334 0.356-2.002 0.013-0.074 0.017-0.15 0.039-0.221 0.031-0.099-0.001-0.163-0.072-0.234-1.706-1.718-3.408-3.438-5.113-5.157-0.243-0.245-0.408-0.526-0.464-0.871-0.12-0.751 0.343-1.478 1.084-1.668 0.287-0.073 0.583-0.109 0.876-0.159 0.577-0.098 1.154-0.195 1.731-0.291 0.526-0.088 1.052-0.176 1.578-0.264 0.569-0.095 1.137-0.188 1.706-0.284 0.497-0.084 0.994-0.171 1.492-0.251 0.064-0.010 0.087-0.043 0.109-0.092 0.398-0.872 0.797-1.744 1.195-2.615 0.563-1.232 1.126-2.463 1.688-3.695 0.217-0.476 0.574-0.783 1.090-0.889 0.622-0.127 1.254 0.15 1.57 0.703 0.313 0.55 0.606 1.111 0.908 1.667 0.871 1.608 1.742 3.216 2.611 4.825 0.031 0.058 0.066 0.088 0.136 0.099 0.694 0.117 1.386 0.239 2.079 0.36 0.781 0.136 1.562 0.274 2.343 0.41 0.716 0.124 1.431 0.252 2.148 0.369 0.537 0.088 0.95 0.343 1.199 0.837 0.284 0.564 0.174 1.275-0.289 1.709-0.5 0.469-1.019 0.917-1.526 1.378-0.679 0.617-1.416 1.164-2.133 1.733-0.636 0.504-1.548 0.131-1.66-0.668-0.052-0.371 0.073-0.693 0.367-0.933 0.457-0.373 0.926-0.732 1.379-1.108 0.409-0.34 0.805-0.695 1.207-1.044 0.010-0.009 0.018-0.021 0.041-0.048z" fill="currentColor"></path>
<path d="M28.975 19.86c-1.122-0.56-2.1-0.804-3.254-0.804-0.854 0-1.813 0.224-2.573 0.638-1.020 0.556-1.665 1.431-1.665 2.55 0 2.223 1.815 3.288 4.347 2.922 1.411-0.204 2.166 0.213 2.166 0.817 0 0.667-0.863 1.26-2.271 1.26-0.618 0-1.417-0.234-2.382-0.724-0.499-0.253-1.109-0.054-1.362 0.445s-0.054 1.109 0.445 1.362c1.226 0.622 2.321 0.943 3.299 0.943 2.4 0 4.298-1.304 4.298-3.288 0-2.079-2.001-3.182-4.484-2.823-1.448 0.209-2.030-0.132-2.030-0.916 0-0.593 1.044-1.161 2.211-1.161 0.83 0 1.5 0.168 2.349 0.591 0.501 0.25 1.11 0.046 1.359-0.455s0.046-1.11-0.455-1.359z" fill="currentColor"></path>
<path d="M24.74 28.53v2.456c0 0.56 0.454 1.014 1.014 1.014s1.014-0.454 1.014-1.014v-2.456c0-0.56-0.454-1.014-1.014-1.014s-1.014 0.454-1.014 1.014z" fill="currentColor"></path>
<path d="M24.74 17.613v2.456c0 0.56 0.454 1.014 1.014 1.014s1.014-0.454 1.014-1.014v-2.456c0-0.56-0.454-1.014-1.014-1.014s-1.014 0.454-1.014 1.014z" fill="currentColor"></path>
</svg>
