<?xml version="1.0" encoding="utf-8"?>
<!-- Generator: Adobe Illustrator 19.1.0, SVG Export Plug-In . SVG Version: 6.00 Build 0)  -->
<svg version="1.1" id="Layer_1" xmlns="http://www.w3.org/2000/svg" xmlns:xlink="http://www.w3.org/1999/xlink" x="0px" y="0px"
	 viewBox="0 0 500 500" style="enable-background:new 0 0 500 500;" xml:space="preserve">
<style type="text/css">
	.st0{fill:#002B2F;}
</style>
<g>
	<path class="st0" d="M5,193c6.1-8,11.4-16.7,18.5-23.7c49-49.4,98.3-98.5,147.5-147.7c18-18,35.6-18,53.7,0
		c4.3,4.3,8.9,8.3,12.5,11.7c-69,69.5-137.3,138.3-206,207.5c-9.4-9.9-21.2-18.3-26.1-32.4C5,203.2,5,198.1,5,193z"/>
	<path class="st0" d="M185.7,128.7c15.5,16.1,31.4,33,47.7,49.5c36.6,36.9,73.5,73.5,110.2,110.3c15.8,15.8,15.4,38.1-0.9,55.1
		c-15.9,16.6-39.8,18.3-55.2,3c-53-52.6-105.6-105.5-158.4-158.3c-0.7-0.7-1.2-1.6-1.6-2.1C146.5,167.5,165.3,149,185.7,128.7z"/>
	<path class="st0" d="M51.3,262.4c19.4-19.4,37.6-37.6,56.1-56.2c1,0.9,2.7,2.3,4.3,3.8c51.6,51.4,103.1,103,154.9,154.3
		c11.8,11.7,15.3,25,9.3,40.4c-6.3,16.2-18.2,26.1-35.7,28.4c-10.7,1.4-19.1-2.3-27.1-10.4c-51.6-52.2-103.7-103.8-155.7-155.6
		C55.6,265.3,53.4,263.9,51.3,262.4z"/>
	<path class="st0" d="M204.1,109.9c18.1-18.4,35.7-36.3,53.7-54.7c1.8,1.6,3.7,3.2,5.4,4.9c53.1,52.9,106,106,159.4,158.6
		c9,8.8,10.5,17.9,7.7,29c-5,19.6-23.9,33.8-43.5,32.8c-8.8-0.4-16.3-3.7-22.5-9.9c-53-53-106-106-159-159
		C204.8,111,204.4,110.4,204.1,109.9z"/>
	<path class="st0" d="M282.9,443.4c20.9-30.5,20.9-30.5,24-58.9c21.3,0.9,39.9-6.1,55-21.3c14.8-15,21.7-33.4,21-54.4
		c34.7-6,34.7-6,57.7-23c5.2,20.3,10.3,40.4,15.4,60.5c2.4,9.4,4.5,18.8,7.1,28.1c1.3,4.4,0.6,7.5-2.8,10.8
		c-25.7,25.4-51.2,51.1-76.9,76.5c-1.9,1.9-5.4,3.7-7.7,3.2C344.8,458,314,450.7,282.9,443.4z"/>
	<path class="st0" d="M473.3,414.8c6.2,24.6,12.8,50.6,19.7,77.9c-27.4-6.4-53.9-12.6-79-18.5C433.6,454.5,453.6,434.6,473.3,414.8z
		"/>
</g>
</svg>
