<?xml version="1.0" encoding="utf-8"?>
<!-- Generator: Adobe Illustrator 19.1.0, SVG Export Plug-In . SVG Version: 6.00 Build 0)  -->
<svg version="1.1" id="Layer_1" xmlns="http://www.w3.org/2000/svg" xmlns:xlink="http://www.w3.org/1999/xlink" x="0px" y="0px"
	 viewBox="0 0 500 500" style="enable-background:new 0 0 500 500;" xml:space="preserve">
<style type="text/css">
	.st0{fill:#002B2F;}
	.st1{fill:#FFFFFF;}
</style>
<path class="st0" d="M6.9,273.3c0-15.1,0-30.3,0-45.4c5.4-13.8,15.9-19.9,30.2-20.9c7.8-0.5,15.4-2.4,23.2-3.1
	c4.2-0.4,5.8-2.2,7.3-6c5.1-13.3,11-26.4,16.1-39.8c0.9-2.4,0.6-6.3-0.8-8.5c-5.6-8.7-11.9-16.9-17.8-25.3
	c-8.5-12.2-7.5-25.1,2.9-35.6c6.9-7,13.8-13.9,20.8-20.8c11-10.8,23.7-11.8,36.2-2.9c8,5.7,15.9,11.6,23.6,17.6
	c3.5,2.8,6.2,3.1,10.7,1c12.5-5.8,25.6-10.5,38.2-16.1c2.6-1.2,5.4-4.2,6.1-6.9c2-8,3.6-16.3,4.2-24.5c1.1-13.9,7.3-23.7,20.1-29.2
	c15.1,0,30.3,0,45.4,0c13.2,5.1,19.5,14.9,20.6,28.8c0.7,8.3,2.5,16.4,3.4,24.7c0.4,3.9,1.8,5.9,5.8,7.5c13.4,5,26.4,11,39.8,16.2
	c2.3,0.9,5.9,0.7,7.8-0.6c8.8-5.9,17.1-12.5,25.7-18.7c12.2-8.7,25-7.6,35.6,2.8c7,6.9,14,13.9,20.9,20.9
	c10.7,10.8,11.7,23.6,2.9,36.2c-5.9,8.4-12.2,16.7-17.8,25.3c-1.4,2.2-1.7,6.1-0.8,8.5c5,13.1,11,25.9,15.9,39.1
	c1.6,4.4,3.6,5.8,7.9,6.3c10.5,1.3,21,2.9,31.4,4.6c12.7,2.1,21.5,12.4,21.7,25.2c0.1,10.1,0,20.2,0,30.3c0,16.5-7.9,25.9-24,28.6
	c-9.9,1.7-20,2.9-29.8,5.1c-2.7,0.6-5.8,3.5-6.9,6.1c-5.8,12.8-11.1,25.8-16.1,39c-0.9,2.4-0.6,6.3,0.8,8.4
	c5.9,8.8,12.5,17.1,18.6,25.7c8.3,11.8,7.2,24.7-2.8,35c-6.9,7-13.9,13.9-20.8,20.9c-11.1,11-23.8,12-36.8,2.8
	c-8.2-5.8-16.6-11.5-24.6-17.6c-3.3-2.5-5.8-2.3-9.5-0.7c-12.8,5.7-25.8,11.2-39,16.2c-4.1,1.5-5.3,3.5-5.8,7.5
	c-1.3,10.5-2.9,21-4.6,31.4c-2.1,13.1-12.4,21.8-25.8,21.9c-9.8,0.1-19.7,0-29.5,0c-16.9,0-26.2-8-28.9-24.6
	c-1.6-9.7-2.9-19.4-4.9-29c-0.5-2.5-3.1-5.6-5.5-6.6c-13.1-5.8-26.3-11.3-39.7-16.4c-2.5-0.9-6.4-0.8-8.5,0.6
	c-8.9,5.7-17.3,12.2-26,18.2c-11.8,8.2-24.8,7.1-35-3c-7.2-7.1-14.3-14.2-21.4-21.4c-10.4-10.6-11.4-23.3-2.6-35.5
	c6-8.4,12.5-16.5,18.2-25.1c1.4-2.1,1.5-6,0.6-8.5c-4.9-12.6-10.8-24.9-15.4-37.7c-1.9-5.4-4.1-7.7-9.8-8.1
	c-7.2-0.6-14.4-2.9-21.6-3.4C22.8,292.6,12.7,286.3,6.9,273.3z M124.8,249.9c0,70.5,56.3,126.6,126.9,126.5
	c67.8-0.1,124.5-57.5,124.5-126.2c0-67.8-57-125.2-124.5-125.4C181.8,124.7,124.8,180.9,124.8,249.9z"/>
<path class="st1" d="M124.8,249.9c0-69,57-125.2,126.9-125c67.5,0.1,124.5,57.5,124.5,125.4c0,68.7-56.6,126-124.5,126.2
	C181.1,376.5,124.8,320.4,124.8,249.9z M250.4,152.3c-55.3,0.1-99,44.3-98.6,99.8c0.4,53.8,44.6,97,99.2,96.9
	c53.9,0,97.9-44.2,97.7-98.3C348.6,195.9,305,152.2,250.4,152.3z"/>
<path class="st0" d="M250.4,152.3c54.5-0.1,98.2,43.6,98.3,98.4c0.1,54.1-43.8,98.2-97.7,98.3c-54.6,0-98.8-43.1-99.2-96.9
	C151.4,196.5,195.1,152.3,250.4,152.3z"/>
</svg>
