<?xml version="1.0" encoding="utf-8"?>
<!-- Generator: Adobe Illustrator 19.1.0, SVG Export Plug-In . SVG Version: 6.00 Build 0)  -->
<svg version="1.1" id="Layer_1" xmlns="http://www.w3.org/2000/svg" xmlns:xlink="http://www.w3.org/1999/xlink" x="0px" y="0px"
	 viewBox="0 0 500 500" style="enable-background:new 0 0 500 500;" xml:space="preserve">
<style type="text/css">
	.st0{fill:#002B2F;}
</style>
<path class="st0" d="M294.8,8c18.1,0,20.9,12.5,20.9,25.8c-0.3,143.8-0.2,287.5-0.2,431.3c0,2.6,0,5.1-0.1,7.7
	c-0.6,11.1-7.7,18.1-18.8,18.1c-32.7,0.1-65.3,0.1-98,0c-11.5,0-18.7-7.4-18.7-18.9c0-148.4,0-296.8-0.1-445.2
	c0-9.4,5.3-18.9,15.6-18.9C232.4,8,257.8,8,294.8,8z"/>
<path class="st0" d="M11.4,192.5c0.8-12.5,7.5-18,25-18c29.8,0,59.7,0.2,89.5,0.2c14.4,0,21.3,6.7,21.3,21.2
	c0.1,91.3,0.1,182.6,0,273.9c0,14.6-6.8,21.1-21.3,21.1c-29.8,0-59.7,0.6-89.5,0.2c-15.2-0.2-25-4.6-25-21.5
	C11.4,372.4,11.4,289.8,11.4,192.5z"/>
<path class="st0" d="M483.6,372.2c0,32.9,0,65.8,0,98.7c0,13-7,20.1-19.8,20.1c-31.9,0-63.7,0-95.6,0c-12.9,0-20.1-7-20.2-19.9
	c-0.1-66-0.1-132.1,0-198.1c0-12.3,6.7-19.6,18.8-19.7c32.6-0.3,65.2-0.3,97.8,0c12.6,0.1,18.9,7.5,18.9,20.3
	C483.6,306.4,483.6,339.3,483.6,372.2z"/>
</svg>
